2014015_C5_03_grf
version=1
nRows=24
nColumns=19
inDegrees=no
endheader
time	ground_force_1_vx	ground_force_1_vy	ground_force_1_vz	ground_force_1_px	ground_force_1_py	ground_force_1_pz	ground_force_1_mx	ground_force_1_my	ground_force_1_mz	ground_force_2_vx	ground_force_2_vy	ground_force_2_vz	ground_force_2_px	ground_force_2_py	ground_force_2_pz	ground_force_2_mx	ground_force_2_my	ground_force_2_mz
      0.40700000	      0.00000000	      0.00000000	      0.00000000	      0.00000000	      0.00000000	      0.00000000	      0.00000000	      0.00000000	      0.00000000	     -7.87865557	    560.44816971	    -12.12075837	     -0.79100195	     -0.00200000	      0.29605850	      0.00000000	      3.58700686	      0.00000000
      0.40800000	      0.00000000	      0.00000000	      0.00000000	      0.00000000	      0.00000000	      0.00000000	      0.00000000	      0.00000000	      0.00000000	     -7.19523476	    562.05391884	    -12.19723038	     -0.79093438	     -0.00200000	      0.29600114	      0.00000000	      3.60314211	      0.00000000
      0.40900000	      0.00000000	      0.00000000	      0.00000000	      0.00000000	      0.00000000	      0.00000000	      0.00000000	      0.00000000	      0.00000000	     -6.50585908	    563.68678808	    -12.26982940	     -0.79087013	     -0.00200000	      0.29594318	      0.00000000	      3.61995857	      0.00000000
      0.41000000	      0.00000000	      0.00000000	      0.00000000	      0.00000000	      0.00000000	      0.00000000	      0.00000000	      0.00000000	      0.00000000	     -5.81177836	    565.34123421	    -12.33937070	     -0.79080842	     -0.00200000	      0.29588474	      0.00000000	      3.63733199	      0.00000000
      0.41100000	      0.00000000	      0.00000000	      0.00000000	      0.00000000	      0.00000000	      0.00000000	      0.00000000	      0.00000000	      0.00000000	     -5.11189736	    567.02241302	    -12.40516864	     -0.79074971	     -0.00200000	      0.29582568	      0.00000000	      3.65541253	      0.00000000
      0.41200000	      0.00000000	      0.00000000	      0.00000000	      0.00000000	      0.00000000	      0.00000000	      0.00000000	      0.00000000	      0.00000000	     -4.40744078	    568.72487068	    -12.46805526	     -0.79069328	     -0.00200000	      0.29576613	      0.00000000	      3.67406473	      0.00000000
      0.41300000	      0.00000000	      0.00000000	      0.00000000	      0.00000000	      0.00000000	      0.00000000	      0.00000000	      0.00000000	      0.00000000	     -3.69734957	    570.45358419	    -12.52743155	     -0.79063955	     -0.00200000	      0.29570600	      0.00000000	      3.69343477	      0.00000000
      0.41400000	      0.00000000	      0.00000000	      0.00000000	      0.00000000	      0.00000000	      0.00000000	      0.00000000	      0.00000000	      0.00000000	     -2.98281922	    572.20315933	    -12.58411333	     -0.79058788	     -0.00200000	      0.29564544	      0.00000000	      3.71337873	     -0.00000000
      0.41500000	      0.00000000	      0.00000000	      0.00000000	      0.00000000	      0.00000000	      0.00000000	      0.00000000	      0.00000000	      0.00000000	     -2.26282538	    573.97833467	    -12.63758875	     -0.79053866	     -0.00200000	      0.29558444	      0.00000000	      3.73403490	      0.00000000
      0.41600000	      0.00000000	      0.00000000	      0.00000000	      0.00000000	      0.00000000	      0.00000000	      0.00000000	      0.00000000	      0.00000000	     -1.53852743	    575.77377558	    -12.68863119	     -0.79049129	     -0.00200000	      0.29552312	      0.00000000	      3.75525383	      0.00000000
      0.41700000	      0.00000000	      0.00000000	      0.00000000	      0.00000000	      0.00000000	      0.00000000	      0.00000000	      0.00000000	      0.00000000	     -0.80893064	    577.59422064	    -12.73680925	     -0.79044610	     -0.00200000	      0.29546148	      0.00000000	      3.77716416	     -0.00000000
      0.41800000	      0.00000000	      0.00000000	      0.00000000	      0.00000000	      0.00000000	      0.00000000	      0.00000000	      0.00000000	      0.00000000	     -0.07515479	    579.43433523	    -12.78283931	     -0.79040254	     -0.00200000	      0.29539966	      0.00000000	      3.79961519	      0.00000000
      0.41900000	      0.00000000	      0.00000000	      0.00000000	      0.00000000	      0.00000000	      0.00000000	      0.00000000	      0.00000000	      0.00000000	      0.66378797	    581.29879832	    -12.82637157	     -0.79036085	     -0.00200000	      0.29533769	      0.00000000	      3.82272133	     -0.00000000
      0.42000000	      0.00000000	      0.00000000	      0.00000000	      0.00000000	      0.00000000	      0.00000000	      0.00000000	      0.00000000	      0.00000000	      1.40683295	    583.18245411	    -12.86805756	     -0.79032054	     -0.00200000	      0.29527564	      0.00000000	      3.84633203	      0.00000000
      0.42100000	      0.00000000	      0.00000000	      0.00000000	      0.00000000	      0.00000000	      0.00000000	      0.00000000	      0.00000000	      0.00000000	      2.15497788	    585.08974314	    -12.90764138	     -0.79028180	     -0.00200000	      0.29521357	      0.00000000	      3.87054451	      0.00000000
      0.42200000	      0.00000000	      0.00000000	      0.00000000	      0.00000000	      0.00000000	      0.00000000	      0.00000000	      0.00000000	      0.00000000	      2.90718465	    587.01568842	    -12.94571310	     -0.79024419	     -0.00200000	      0.29515153	      0.00000000	      3.89521372	      0.00000000
      0.42300000	      0.00000000	      0.00000000	      0.00000000	      0.00000000	      0.00000000	      0.00000000	      0.00000000	      0.00000000	      0.00000000	      3.66445142	    588.96455169	    -12.98211683	     -0.79020784	     -0.00200000	      0.29508956	      0.00000000	      3.92041932	      0.00000000
      0.42400000	      0.00000000	      0.00000000	      0.00000000	      0.00000000	      0.00000000	      0.00000000	      0.00000000	      0.00000000	      0.00000000	      4.42575384	    590.93147516	    -13.01737279	     -0.79017237	     -0.00200000	      0.29502768	      0.00000000	      3.94602471	      0.00000000
      0.42500000	      0.00000000	      0.00000000	      0.00000000	      0.00000000	      0.00000000	      0.00000000	      0.00000000	      0.00000000	      0.00000000	      5.19208331	    592.92063117	    -13.05143796	     -0.79013789	     -0.00200000	      0.29496596	      0.00000000	      3.97209070	      0.00000000
      0.42600000	      0.00000000	      0.00000000	      0.00000000	      0.00000000	      0.00000000	      0.00000000	      0.00000000	      0.00000000	      0.00000000	      5.96242305	    594.92725134	    -13.08474988	     -0.79010409	     -0.00200000	      0.29490441	     -0.00000000	      3.99849288	      0.00000000
      0.42700000	      0.00000000	      0.00000000	      0.00000000	      0.00000000	      0.00000000	      0.00000000	      0.00000000	      0.00000000	      0.00000000	      6.73777144	    596.95532918	    -13.11736945	     -0.79007102	     -0.00200000	      0.29484311	      0.00000000	      4.02527406	      0.00000000
      0.42800000	      0.00000000	      0.00000000	      0.00000000	      0.00000000	      0.00000000	      0.00000000	      0.00000000	      0.00000000	      0.00000000	      7.51713244	    599.00033474	    -13.14963363	     -0.79003842	     -0.00200000	      0.29478204	      0.00000000	      4.05232560	      0.00000000
      0.42900000	      0.00000000	      0.00000000	      0.00000000	      0.00000000	      0.00000000	      0.00000000	      0.00000000	      0.00000000	      0.00000000	      8.30153050	    601.06620193	    -13.18170000	     -0.79000629	     -0.00200000	      0.29472126	     -0.00000000	      4.07967486	      0.00000000
      0.43000000	      0.00000000	      0.00000000	      0.00000000	      0.00000000	      0.00000000	      0.00000000	      0.00000000	      0.00000000	      0.00000000	      9.08998027	    603.14851999	    -13.21380883	     -0.78997443	     -0.00200000	      0.29466076	      0.00000000	      4.10722870	      0.00000000
